<svg xmlns="http://www.w3.org/2000/svg" width="256" height="256" viewBox="0 0 100 100">
  <rect
    width="100"
    height="100"
    rx="20"
    fill="#2b7098"
    data-darkreader-inline-fill=""
    style="--darkreader-inline-fill: #225a7a"
  ></rect>
  <path
    d="M23.33 69.55L12.51 69.55L12.51 30.45L23.55 30.45Q28.65 30.45 32.57 32.71Q36.49 34.96 38.63 39.12Q40.76 43.29 40.79 48.68L40.79 48.68L40.79 51.18Q40.79 56.71 38.65 60.88Q36.52 65.04 32.56 67.27Q28.60 69.50 23.33 69.55L23.33 69.55ZM23.68 34.69L17.67 34.69L17.67 65.33L23.09 65.33Q29.05 65.33 32.37 61.63Q35.69 57.92 35.69 51.07L35.69 51.07L35.69 48.79Q35.69 42.13 32.56 38.44Q29.43 34.75 23.68 34.69L23.68 34.69ZM48.58 30.45L55.24 30.45L68.02 62.35L80.80 30.45L87.49 30.45L87.49 69.55L82.33 69.55L82.33 54.32L82.82 37.89L69.98 69.55L66.03 69.55L53.22 37.97L53.73 54.32L53.73 69.55L48.58 69.55L48.58 30.45Z"
    fill="#ffffff"
    data-darkreader-inline-fill=""
    style="--darkreader-inline-fill: #181a1b"
  ></path>
</svg>
